<?xml version="1.0" encoding="UTF-8" standalone="no"?>
<!-- Created with Inkscape (http://www.inkscape.org/) -->
<svg id="svg3933" xmlns:rdf="http://www.w3.org/1999/02/22-rdf-syntax-ns#" xmlns="http://www.w3.org/2000/svg" height="1500" width="1500" version="1.1" xmlns:cc="http://creativecommons.org/ns#" xmlns:dc="http://purl.org/dc/elements/1.1/">
 <metadata id="metadata3939">
  <rdf:RDF>
   <cc:Work rdf:about="">
    <dc:format>image/svg+xml</dc:format>
    <dc:type rdf:resource="http://purl.org/dc/dcmitype/StillImage"/>
    <dc:title/>
   </cc:Work>
  </rdf:RDF>
 </metadata>
 <defs id="defs3937">
  <clipPath id="clipPath5673" clipPathUnits="userSpaceOnUse">
   <rect id="rect5675" opacity=".36918" transform="rotate(20.5)" height="364.04" width="232.58" stroke-miterlimit="4.3333" y="505.27" x="631.47" stroke-width="0" fill="#1fc8db"/>
  </clipPath>
 </defs>
 <path id="path5256" opacity=".36918" d="m1016.9 380.56a302.7 213.72 0 0 1 -0.0006 0.45169" stroke="#000" stroke-miterlimit="4.3333" stroke-width="30" fill="none"/>
 <path id="path5258" opacity=".36918" d="m1755.8 404.4a62.765 140.62 0 0 1 -0.0001 0.2972" stroke="#000" stroke-miterlimit="4.3333" stroke-width="50" fill="none"/>
 <path id="path2995" opacity=".36918" d="m44.492 362.29a273.31 185.91 0 0 1 -0.00061 0.39291" stroke="#8e0000" stroke-miterlimit="4.3333" stroke-width="50" fill="none"/>
 <path id="path3765" opacity=".36918" d="m-170.02 575.21a73.093 141.42 0 0 1 -0.00016 0.29889" stroke="#8e0000" stroke-miterlimit="4.3333" stroke-width="50" fill="none"/>
 <path id="path4356" stroke-linejoin="round" opacity=".36918" d="m758.41 23.239c-25.249 0-46.373 17.514-51.938 41.062-96.54 9.889-183.37 46.999-249.84 102.16-6.2027-2.5209-12.986-3.9062-20.094-3.9062-29.492 0-53.406 23.914-53.406 53.406 0 8.3196 1.9187 16.199 5.3125 23.219-41.115 57.153-64.844 124.53-64.844 196.69 0 6.2991 0.17383 12.558 0.53125 18.781h-0.53125v123.84c-28.101 15.642-43.812 33.058-43.812 51.406 0 67.919 214.69 122.97 479.5 122.97s479.47-55.049 479.47-122.97c0-18.717-16.335-36.456-45.5-52.344v-122.91h-0.5625c0.3576-6.2212 0.5625-12.484 0.5625-18.781 0-71.294-23.197-137.92-63.406-194.62 4.0599-7.5311 6.375-16.125 6.375-25.281 0-29.492-23.914-53.406-53.406-53.406-7.7476 0-15.105 1.6573-21.75 4.625-66.72-55.56-153.9-92.947-250.85-102.88-5.5648-23.549-26.689-41.062-51.938-41.062z" stroke="#1fc8db" stroke-miterlimit="4.3333" stroke-width="30" fill="none"/>
 <path id="rect4701" opacity=".36918" stroke-linejoin="round" d="m296.62 792.16v110.09h0.0625l134.5 131.81v0.7812h236.78l68.469-82.875h48.469l68.35 82.68v0.1875h236.78v-0.5938l134.66-132v-110.09h-928.06z" stroke="#1fc8db" stroke-linecap="round" stroke-miterlimit="4.3333" stroke-width="30" fill="none"/>
 <path id="path4783" opacity=".36918" d="m760.66 21.969c-25.25 0-46.38 17.514-51.94 41.062-96.54 9.889-183.37 46.999-249.84 102.16-6.21-2.52-12.99-3.91-20.1-3.91-29.49 0-53.4 23.92-53.4 53.41 0 8.32 1.91 16.2 5.31 23.22-41.12 57.15-64.85 124.52-64.85 196.68 0 6.3 0.18 12.56 0.54 18.79h-0.54v123.84c-28.1 15.64-43.81 33.06-43.81 51.4 0 67.92 214.69 122.97 479.5 122.97 264.77 0 479.47-55.05 479.47-122.97 0-18.71-16.3-36.45-45.5-52.34v-122.9h-0.6c0.4-6.23 0.6-12.49 0.6-18.79 0-71.29-23.2-137.91-63.4-194.62 4.1-7.53 6.4-16.13 6.4-25.28 0-29.49-23.9-53.41-53.4-53.41-7.8 0-15.1 1.66-21.8 4.63-66.57-55.56-153.75-92.947-250.71-102.88-5.56-23.547-26.68-41.061-51.93-41.061z" stroke-opacity="0" stroke-miterlimit="4.3333" fill="none"/>
 <path id="path4787" opacity=".36918" stroke-linejoin="round" d="m324.41 680v112.16h869.69v-111.19c-76.7 41.74-242.19 70.62-434.01 70.62-193.26 0-359.78-29.34-435.68-71.59zm0 249.41v80.69h1.43c-0.39 6.3-0.59 12.7-0.59 19.1 0 11.9 0.71 23.6 2.03 35.1l-1.44-2.5s0.3 37.9 26.63 93.5c0 0-0.01 0 0 0 6.39 14.1 13.84 27.6 22.22 40.5 0.02 0 0.04 0 0.06 0.1 18.68 34.6 42.3 62.9 66.47 81.9h0.03c6.46 6.4 13.24 12.9 20.44 19.4 20.9 19.5 46.55 40.9 75.12 62.3 74.2 55.6 142.88 92.3 164.22 88.8h61.09 59.97v-0.5c16.88 8.4 89.04-29.2 167.32-87.8 43.19-32.4 79.69-64.8 103.19-90.4 21.2-18.7 41.6-44.3 58.1-75 8.6-16 15.5-32.1 20.7-47.8 15.2-36.3 23.5-76 23.5-117.6 0-7.7-0.3-15.3-0.8-22.8v-74.12l-104.1 101.92v0.6h-236.75v-0.1l-68.34-82.73h-48.47l-68.47 82.83h-236.78v-0.7l-106.78-104.69z" stroke="#1fc8db" stroke-linecap="round" stroke-miterlimit="4.3333" stroke-width="30" fill="none"/>
 <path id="path4939" opacity=".36918" d="m296.62 792.16v110.09h0.0625l134.5 131.81v0.7812h236.78l68.469-82.875h48.469l68.35 82.68v0.1875h236.78v-0.5938l134.66-132v-110.09h-928.06z" clip-path="url(#clipPath5673)" stroke-miterlimit="4.3333" stroke-width="0" fill="#1fc8db"/>
</svg>
